# xmcd CD database file
#
# Track frame offsets:
#	150
#	16537
#	35727
#	58195
#	81335
#	100335
#	115507
#	134370
#	153682
#	172092
#	196400
#	214009
#
# Disc length: 3150 seconds
#
# Revision: 1
# Processed by: cddbd v1.5.1PL0 Copyright (c) Steve Scherf et al.
# Submitted via: CDex 1.51
#
DISCID=a40c4c0c
DTITLE=Willie Clayton - The Last Man Standing
DYEAR=2002
DGENRE=Soul
TTITLE0=Looking To Hook
TTITLE1=I Found Love
TTITLE2=I Wish He Didn't Trust Me So Much
TTITLE3=Ooh Baby Baby
TTITLE4=Old Fashined Girl
TTITLE5=Drowning In The Sea Of Love
TTITLE6=How To Treat Your Lady
TTITLE7=Living With Me
TTITLE8=Let The Good Time Roll
TTITLE9=I Love Me Some You
TTITLE10=Good Woman
TTITLE11=Jesus Will Make A WayJESUS WILL MAKE A WAY
EXTD=YEAR: 2002
EXTT0=
EXTT1=
EXTT2=
EXTT3=
EXTT4=
EXTT5=
EXTT6=
EXTT7=
EXTT8=
EXTT9=
EXTT10=
EXTT11=
PLAYORDER=
